<?xml version="1.0" encoding="utf-8"?>
<!-- Generator: Adobe Illustrator 21.0.2, SVG Export Plug-In . SVG Version: 6.00 Build 0)  -->
<svg version="1.1" id="Layer_2" xmlns="http://www.w3.org/2000/svg" xmlns:xlink="http://www.w3.org/1999/xlink" x="0px" y="0px"
	 viewBox="0 0 63.4 63.4" style="enable-background:new 0 0 63.4 63.4;" xml:space="preserve">
<style type="text/css">
	.st0{fill:#FFFFFF;}
</style>
<path class="st0" d="M7.7,0C3.4,0,0,3.4,0,7.7s3.4,7.7,7.7,7.7s7.7-3.4,7.7-7.7S11.9,0,7.7,0z M7.6,10.7c-1.7,0-3.1-1.4-3.1-3.1
	s1.4-3.1,3.1-3.1c1.7,0,3.1,1.4,3.1,3.1S9.3,10.7,7.6,10.7z"/>
<path class="st0" d="M31.6,0c-4.2,0-7.7,3.4-7.7,7.7s3.4,7.7,7.7,7.7s7.7-3.4,7.7-7.7S35.8,0,31.6,0z M31.5,10.7
	c-1.7,0-3.1-1.4-3.1-3.1s1.4-3.1,3.1-3.1c1.7,0,3.1,1.4,3.1,3.1S33.2,10.7,31.5,10.7z"/>
<path class="st0" d="M31.6,24c-4.2,0-7.7,3.4-7.7,7.7s3.4,7.7,7.7,7.7s7.7-3.4,7.7-7.7S35.8,24,31.6,24z M31.5,34.8
	c-1.7,0-3.1-1.4-3.1-3.1s1.4-3.1,3.1-3.1c1.7,0,3.1,1.4,3.1,3.1S33.2,34.8,31.5,34.8z"/>
<path class="st0" d="M31.6,48c-4.2,0-7.7,3.4-7.7,7.7s3.4,7.7,7.7,7.7s7.7-3.4,7.7-7.7S35.8,48,31.6,48z M31.5,58.8
	c-1.7,0-3.1-1.4-3.1-3.1s1.4-3.1,3.1-3.1c1.7,0,3.1,1.4,3.1,3.1S33.2,58.8,31.5,58.8z"/>
<path class="st0" d="M55.7,48c-4.2,0-7.7,3.4-7.7,7.7s3.4,7.7,7.7,7.7s7.7-3.4,7.7-7.7S59.9,48,55.7,48z M55.6,58.8
	c-1.7,0-3.1-1.4-3.1-3.1s1.4-3.1,3.1-3.1c1.7,0,3.1,1.4,3.1,3.1S57.3,58.8,55.6,58.8z"/>
<path class="st0" d="M7.7,48C3.4,48,0,51.5,0,55.7s3.4,7.7,7.7,7.7s7.7-3.4,7.7-7.7S11.9,48,7.7,48z M7.6,58.8
	c-1.7,0-3.1-1.4-3.1-3.1s1.4-3.1,3.1-3.1c1.7,0,3.1,1.4,3.1,3.1S9.3,58.8,7.6,58.8z"/>
<path class="st0" d="M55.7,24c-4.2,0-7.7,3.4-7.7,7.7s3.4,7.7,7.7,7.7s7.7-3.4,7.7-7.7S59.9,24,55.7,24z M55.6,34.8
	c-1.7,0-3.1-1.4-3.1-3.1s1.4-3.1,3.1-3.1c1.7,0,3.1,1.4,3.1,3.1S57.3,34.8,55.6,34.8z"/>
<path class="st0" d="M7.7,24C3.4,24,0,27.5,0,31.7s3.4,7.7,7.7,7.7s7.7-3.4,7.7-7.7S11.9,24,7.7,24z M7.6,34.8
	c-1.7,0-3.1-1.4-3.1-3.1s1.4-3.1,3.1-3.1c1.7,0,3.1,1.4,3.1,3.1S9.3,34.8,7.6,34.8z"/>
<path class="st0" d="M55.7,0C51.4,0,48,3.4,48,7.7s3.4,7.7,7.7,7.7s7.7-3.4,7.7-7.7S59.9,0,55.7,0z M55.6,10.7
	c-1.7,0-3.1-1.4-3.1-3.1s1.4-3.1,3.1-3.1c1.7,0,3.1,1.4,3.1,3.1S57.3,10.7,55.6,10.7z"/>
</svg>
